# xmcd
#
# Track frame offsets: 
#        150
#        15285
#        31245
#        50845
#        63957
#        77405
#        94132
#        110740
#        125504
#        141517
#        156999
#        172049
#        189134
#        205329
#
# Disc length: 2936 seconds
#
# Revision: 1
# Processed by: cddbd v1.5.2PL0 Copyright (c) Steve Scherf et al.
# Submitted via: ExactAudioCopyFreeDBPlugin 1.0
#
DISCID=bd0b760e
DTITLE=Home Free - Timeless [Deluxe Edition]
DYEAR=2017
DGENRE=A capella - Contemporary Country
TTITLE0=Life is a Highway
TTITLE1=It Looks Good
TTITLE2=Castle on the Hill
TTITLE3=When You Walk In
TTITLE4=We Just Disagree
TTITLE5=In The Blood
TTITLE6=Man of Constant Sorrow
TTITLE7=Good 'Ol Boy Good Time
TTITLE8=I Can't Outrun You
TTITLE9=Hillbilly Bone
TTITLE10=Timeless
TTITLE11=Mayday (Album Only Bonus)
TTITLE12=Blue Ain't Your Color (Album Only Bonus)
TTITLE13=My Church (Album Only Bonus)
EXTD=YEAR: 2017
EXTT0=
EXTT1=
EXTT2=
EXTT3=
EXTT4=
EXTT5=
EXTT6=
EXTT7=
EXTT8=
EXTT9=
EXTT10=
EXTT11=
EXTT12=
EXTT13=
PLAYORDER=
